# xmcd
#
# Track frame offsets:
#	150
#	15440
#	30205
#	46581
#	60535
#	78550
#	96610
#	120845
#	137095
#	156995
#	176565
#	194744
#	213397
#	231292
#	248401
#
# Disc length: 3530 seconds
#
# Revision: 0
# Processed by: cddbd v1.5.2PL0 Copyright (c) Steve Scherf et al.
# Submitted via: audiograbber 1.83.01
#
DISCID=bd0dc80f
DTITLE=JonesTM - HC200824
DYEAR=2008
DGENRE=Country
TTITLE0=Jewel - I Do [Radio Edit]
TTITLE1=Lee Ann Womack - Last Call
TTITLE2=Darren Kozelsky - She Got Me There
TTITLE3=Lady Antebellum - Lookin' For A Good Time
TTITLE4=Brad Paisley - Waitin' On A Woman [Radio Edit]
TTITLE5=Montell Jordan - Me And U
TTITLE6=CeCe Winans - Waging War
TTITLE7=Robin Thicke - Magic [Radio Edit]
TTITLE8=Jordin Sparks Duet With Chris Brown - No Air [Album Version]
TTITLE9=Keith Sweat Feat. Athena Cage - Buttersctoch
TTITLE10=Bradley Leighton Feat. Tom Scott and Mic Gillette - Wake Up Call
TTITLE11=Stevie Holland - The Music In Me That Plays [Album Version]
TTITLE12=Bradley Leighton Feat. Greg Adams - Rock Me Softly
TTITLE13=Warren Hill - La Dolce Vita [Radio Edit]
TTITLE14=Nick Colionne - No Limits
EXTD=
EXTT0=
EXTT1=
EXTT2=
EXTT3=
EXTT4=
EXTT5=
EXTT6=
EXTT7=
EXTT8=
EXTT9=
EXTT10=
EXTT11=
EXTT12=
EXTT13=
EXTT14=
PLAYORDER=
